# xmcd CD database file
# Copyright (C) 1997 Ti Kan
#
# Track frame offsets:
#  150
#  23802
#  43327
#  64155
#  86640
#  109282
#  132080
#  152012
#  176315
#  201140
#  220147
#  242382
#  263712
#  284922
#  302557
#  327880
#
# Disc length: 4594 seconds
#
# Revision: 1
# Processed by: cddbd v1.4b41PL1 Copyright (c) Steve Scherf et al.
# Submitted via: CDWizzard Release:4.32
#
DISCID=e311f010
DTITLE=Lisa Stansfield - LISA
DYEAR=1900
DGENRE=
TTITLE0=Never Gonna Fall
TTITLE1=The Real Thing
TTITLE2=I'm Leavin'
TTITLE3=Suzanne
TTITLE4=Never, Never Gonna Give You Up
TTITLE5=Don't Cry For Me
TTITLE6=The Line
TTITLE7=The Very Thought of You
TTITLE8=You Know How to Love Me
TTITLE9=I Cried My Last Tear Last Night
TTITLE10=Honest
TTITLE11=Somewhere In Time
TTITLE12=Got Me Missing You
TTITLE13=Footsteps
TTITLE14=The Real Thing (Touch Mix)
TTITLE15=People Hold On (Bootleg Mix)
EXTD=
EXTT0=
EXTT1=
EXTT2=
EXTT3=
EXTT4=
EXTT5=
EXTT6=
EXTT7=
EXTT8=
EXTT9=
EXTT10=
EXTT11=
EXTT12=
EXTT13=
EXTT14=
EXTT15=
PLAYORDER=
